<!--?xml version="1.0" encoding="utf-8"?-->
<!-- Generator: Adobe Illustrator 22.0.0, SVG Export Plug-In . SVG Version: 6.00 Build 0)  -->
<svg version="1.1" id="Calque_1" xmlns="http://www.w3.org/2000/svg" xmlns:xlink="http://www.w3.org/1999/xlink" x="0px" y="0px" viewBox="0 0 83 121" style="" xml:space="preserve" class="">
<style type="text/css">
	.st0{fill:none;stroke:#000000;stroke-width:5;}
</style>
<path class="st0 letter letter-s" d="M72.2,32c0.1-4.6-0.6-8.6-2.2-12.2c-1.5-3.5-3.7-6.5-6.6-8.9s-6.3-4.3-10.3-5.6S44.8,3.4,40,3.4
	c-4.7,0-8.9,0.7-12.5,2.1s-6.7,3.4-9.2,5.8s-4.4,5.3-5.6,8.6c-1.3,3.3-1.9,6.7-1.9,10.2c0,3.6,0.3,7.6,1,10.2
	c0.7,2.6,1.6,4.8,2.8,6.6s2.7,3.3,4.5,4.4c1.8,1.1,3.8,1.9,6.1,2.5L57.4,62c6,1.4,10.5,4.6,13.3,9.6c2.8,4.9,4.1,11.8,3.9,18.5
	c-0.1,3.4-0.9,6.7-2.4,10s-3.6,6.3-6.3,8.9c-2.7,2.6-6,4.7-9.8,6.3c-3.9,1.6-8.1,2.4-12.9,2.4c-4.7,0-9.2-0.6-13.4-1.9
	s-7.9-3.3-11-6c-3.2-2.8-5.7-6.3-7.6-10.6c-1.9-4.3-2.8-9.6-2.8-15.7"></path>
</svg>
