<?xml version="1.0" encoding="utf-8"?>
<!-- Generator: Adobe Illustrator 22.0.0, SVG Export Plug-In . SVG Version: 6.00 Build 0)  -->
<svg version="1.1" id="Calque_1" xmlns="http://www.w3.org/2000/svg" xmlns:xlink="http://www.w3.org/1999/xlink" x="0px" y="0px"
	 viewBox="0 0 82.8 117.5" style="enable-background:new 0 0 82.8 117.5;" xml:space="preserve"  preserveAspectRatio="none">
<style type="text/css">
	.st0{fill:none;stroke:#000000;stroke-width:1;}
</style>
<g>
	<path class="st0" d="M74.1,29.5c0.1-4.7-0.7-8.8-2.3-12.4c-1.6-3.6-4-6.6-7.1-9.1c-3.1-2.5-6.7-4.4-11-5.7
		C49.5,1,44.9,0.4,39.9,0.4s-9.5,0.7-13.3,2.2C22.6,4,19.4,6,16.7,8.5c-2.7,2.5-4.7,5.4-6,8.7c-1.4,3.3-2,6.8-2,10.4
		c0,3.6,0.3,7.8,1,10.4c0.7,2.6,1.7,4.9,3,6.8c1.3,1.9,2.9,3.4,4.8,4.4c1.9,1.1,4.1,1.9,6.5,2.6l34.2,8.3c6.4,1.5,11.1,4.7,14.1,9.7
		c3,5,4.4,12,4.2,18.9c-0.1,3.4-0.9,6.8-2.5,10.2c-1.6,3.4-3.8,6.4-6.7,9c-2.9,2.6-6.4,4.8-10.5,6.4c-4.1,1.6-8.7,2.4-13.7,2.4
		s-9.8-0.7-14.3-1.9c-4.5-1.3-8.4-3.4-11.7-6.2c-3.4-2.8-6-6.4-8-10.8c-2-4.4-3-9.7-3-16"/>
</g>
</svg>
