<svg id="Calque_1" data-name="Calque 1" xmlns="http://www.w3.org/2000/svg" viewBox="0 0 82.8 117.2" preserveAspectRatio="none"><defs><style>.cls-1{fill:none;stroke:#000;stroke-width:1px;}</style></defs><title>Plan de travail 1 copie 48</title><path class="cls-1" d="M79.28,29.59a25.26,25.26,0,0,0-2.66-12.38,25.11,25.11,0,0,0-8.21-9.09A39.26,39.26,0,0,0,55.69,2.43a61.71,61.71,0,0,0-16-1.9,48,48,0,0,0-15.38,2.2A33.35,33.35,0,0,0,12.9,8.62,23.67,23.67,0,0,0,6,17.31,23.2,23.2,0,0,0,3.65,27.69,39.81,39.81,0,0,0,4.8,38.08a20.83,20.83,0,0,0,3.47,6.79,15,15,0,0,0,5.55,4.4,37.23,37.23,0,0,0,7.52,2.59l39.55,8.29c7.4,1.5,12.84,4.7,16.3,9.69s5.09,12,4.86,18.88A22.59,22.59,0,0,1,79.16,98.9a28.48,28.48,0,0,1-7.75,9,40.93,40.93,0,0,1-12.14,6.39,49.49,49.49,0,0,1-15.84,2.4,73.63,73.63,0,0,1-16.54-1.9,38.4,38.4,0,0,1-13.53-6.19A30.07,30.07,0,0,1,4.11,97.8C1.8,93.41.64,88.12.64,81.83"/></svg>
