<svg id="Calque_1" data-name="Calque 1" xmlns="http://www.w3.org/2000/svg" viewBox="0 0 82.8 117.2" preserveAspectRatio="none"><defs><style>.cls-1{fill:none;stroke:#1d1d1b;stroke-width:1px;}</style></defs><title>Plan de travail 1 copie 36</title><path class="cls-1" d="M75.1,117,40.28,45.77a40.36,40.36,0,0,1-3.93-12.59A29.71,29.71,0,0,1,38.2,20.26a37.8,37.8,0,0,1,3.33-7.06"/><path class="cls-1" d="M82.3,67.59c-5.61,16.26-13,28.5-23.27,36.74a54.79,54.79,0,0,1-35.32,12.35,34.5,34.5,0,0,1-12.15-1.93A16.54,16.54,0,0,1,3.65,109a17.34,17.34,0,0,1-3-9.63A37.58,37.58,0,0,1,3.11,85.72C6.84,75,12,68.06,17.67,63.58A54.53,54.53,0,0,1,26.83,58l26.4-13.47a96.42,96.42,0,0,0,13.54-7.94A47.22,47.22,0,0,0,74.25,30a19.9,19.9,0,0,0,3.57-5.38c.65-1.6,1.2-3,1.64-4.33a43.55,43.55,0,0,0,1.35-5.21,14.13,14.13,0,0,0-.14-6.5A10.42,10.42,0,0,0,76.8,2.94Q73.76.52,66.9.53A34.52,34.52,0,0,0,55.2,2.29,27.19,27.19,0,0,0,47,6.87a25.1,25.1,0,0,0-5.46,6.33"/></svg>
