<svg id="Calque_1" data-name="Calque 1" xmlns="http://www.w3.org/2000/svg" viewBox="0 0 82.8 117.2"><defs><style>.cls-1{fill:none;stroke:#000;stroke-width:1px;}</style></defs><title>Plan de travail 1 copie 26</title><path class="cls-1" d="M38.9,113.61a45.44,45.44,0,0,0,14.38-9.9,73.85,73.85,0,0,0,13.1-17.46,140,140,0,0,0,11-27.5,113.43,113.43,0,0,0,4.79-27.41q.51-11.23-2.33-18.23C78,8.45,75.69,5.63,72,3.59A26.83,26.83,0,0,0,58.89.52,38.72,38.72,0,0,0,44,3.59a42.74,42.74,0,0,0-14.42,9.52A79.93,79.93,0,0,0,16.41,31.34C12.3,38.83,9.15,48,5.94,58.75S.92,78.81.59,86.25,1.06,99.16,3,103.71s4.23,7.86,8,9.9A26.83,26.83,0,0,0,24,116.67,38.71,38.71,0,0,0,38.9,113.61ZM58.89.52m18.5,58.23M38.9,113.61m-27.95,0"/><line class="cls-1" x1="81.66" y1="20.81" x2="1.06" y2="96.49"/></svg>