<svg id="Calque_1" data-name="Calque 1" xmlns="http://www.w3.org/2000/svg" viewBox="0 0 82.8 117.2"><defs><style>.cls-1{fill:none;stroke:#000;stroke-width:1px;}</style></defs><title>Plan de travail 1 copie 28</title><path class="cls-1" d="M75.88,44.82a35.78,35.78,0,0,1-4.34,7.41A31,31,0,0,1,64,58.68L34.48,77.06Q29,80.45,23.84,83.83a60.37,60.37,0,0,0-9.63,7.9,56.15,56.15,0,0,0-8.14,10.56c-2.43,4-3.77,8.48-5.38,14.39H62.1"/><path class="cls-1" d="M6.07,102.29a56.15,56.15,0,0,1,8.14-10.56,60.37,60.37,0,0,1,9.63-7.9Q29,80.44,34.48,77.06L64,58.68a31,31,0,0,0,7.59-6.45,35.78,35.78,0,0,0,4.34-7.41c1.29-2.58,4.68-13.44,5.37-16.12a35.5,35.5,0,0,0,1-9,20.65,20.65,0,0,0-1.94-8.82A17.35,17.35,0,0,0,74,3.51c-2.92-2-6.4-3-11.51-3A32.11,32.11,0,0,0,48.6,3.43a37,37,0,0,0-10.72,7.66A41.18,41.18,0,0,0,30.2,21.28a57.88,57.88,0,0,0-4.58,11.93"/></svg>