<svg id="Calque_1" data-name="Calque 1" xmlns="http://www.w3.org/2000/svg" viewBox="0 0 82.8 117.2"><defs><style>.cls-1{fill:none;stroke:#000;stroke-width:1px;}</style></defs><title>Plan de travail 1 copie 29</title><path class="cls-1" d="M19.77,29.26a36.83,36.83,0,0,1,5.07-10.62,38.61,38.61,0,0,1,8.46-9.3A41.35,41.35,0,0,1,44.91,3,42.78,42.78,0,0,1,59.64.53c5.4,0,9.25.7,12.62,2.1a15.32,15.32,0,0,1,7.42,5.9,17.86,17.86,0,0,1,2.56,8.81,32.16,32.16,0,0,1-1.42,10.3A38.33,38.33,0,0,1,76,38.39,28.8,28.8,0,0,1,68.15,47,39.28,39.28,0,0,1,55.4,52.54a72.24,72.24,0,0,1-17.85,1.94q20.82,0,28.11,8.32t2.83,24.49A42.76,42.76,0,0,1,62.14,101a33.93,33.93,0,0,1-9.63,8.7A40.74,40.74,0,0,1,40.26,115a58.83,58.83,0,0,1-14.37,1.7,36.46,36.46,0,0,1-13.08-2.1,20.66,20.66,0,0,1-8.67-6C2,106,1.23,103.43.75,99.82A29.67,29.67,0,0,1,1.82,87.94"/></svg>