<svg id="Calque_1" data-name="Calque 1" xmlns="http://www.w3.org/2000/svg" viewBox="0 0 82.8 117.2" preserveAspectRatio="none"><defs><style>.cls-1{fill:none;stroke:#000;stroke-width:1px;}</style></defs><title>Plan de travail 1 copie 31</title><path class="cls-1" d="M.8,90.54a64.81,64.81,0,0,0-.2,8.09A18.81,18.81,0,0,0,3,107.21a17.42,17.42,0,0,0,7.44,6.8q5.19,2.76,15,2.75a33,33,0,0,0,12-2.1,36.53,36.53,0,0,0,9.76-5.59,46.41,46.41,0,0,0,7.6-7.69,63,63,0,0,0,5.62-8.5,68.3,68.3,0,0,0,3.84-8.09,55.65,55.65,0,0,0,2.12-6.23q2.18-8.41,1-14.73a23.18,23.18,0,0,0-4.5-10.53,20.36,20.36,0,0,0-8.31-6.23,27.07,27.07,0,0,0-10.35-2,45.23,45.23,0,0,0-9.49.89,39.25,39.25,0,0,0-14.54,6.31Q16.79,54.61,13,57.51L27.59.53H82.8"/></svg>
