<svg id="Calque_1" data-name="Calque 1" xmlns="http://www.w3.org/2000/svg" viewBox="0 0 82.8 117.2"><defs><style>.cls-1{fill:none;stroke:#000;stroke-width:1px;}</style></defs><title>Plan de travail 1 copie 32</title><path class="cls-1" d="M2,81.5A51,51,0,0,1,8.45,67.08,48.67,48.67,0,0,1,18.3,56a43.54,43.54,0,0,1,12.27-7.13,38.07,38.07,0,0,1,13.52-2.51,39.33,39.33,0,0,1,12.46,1.86,19.44,19.44,0,0,1,9,6,20.53,20.53,0,0,1,4.26,10.86Q70.65,71.79,68,81.5A56,56,0,0,1,60.77,98a42.63,42.63,0,0,1-10.25,10.86,39.25,39.25,0,0,1-12.34,6,49.62,49.62,0,0,1-13.49,1.86,27.37,27.37,0,0,1-12-2.51A19.91,19.91,0,0,1,4.45,107,25.32,25.32,0,0,1,.72,95.93,40.09,40.09,0,0,1,2,81.5q1.27-5.18,3.15-13.37T9.94,50.87A158.15,158.15,0,0,1,17,32.63c2.8-6.1,6.2-10.57,10.2-15.48a49.72,49.72,0,0,1,14.15-12"/><path class="cls-1" d="M82.11,15.28a27.33,27.33,0,0,1-.28,6.81,27.33,27.33,0,0,0,.28-6.81,13.89,13.89,0,0,0-2.51-7,17.17,17.17,0,0,0-7-5.51C69.38,1.29,66,.53,60.21.53A37.49,37.49,0,0,0,41.38,5.15"/></svg>