<svg id="Calque_1" data-name="Calque 1" xmlns="http://www.w3.org/2000/svg" viewBox="0 0 82.8 117.2" preserveAspectRatio="none"><defs><style>.cls-1{fill:none;stroke:#1d1d1b;stroke-width:1px;}</style></defs><title>Plan de travail 1 copie 34</title><path class="cls-1" d="M40.44,114.91a41.33,41.33,0,0,0,12.26-5.57,39.66,39.66,0,0,0,10-9.68,44.13,44.13,0,0,0,6.66-14.27c1.57-5.6,2.1-10.35,1.59-14.28a17,17,0,0,0-4.17-9.6A20.3,20.3,0,0,0,57.68,56a44.52,44.52,0,0,0-13.32-1.78A55.26,55.26,0,0,0,30,56a37.74,37.74,0,0,0-11.9,5.48,36.93,36.93,0,0,0-9.5,9.6A47.35,47.35,0,0,0,2.2,85.39Q-.16,93.78.85,99.66a18.53,18.53,0,0,0,4.46,9.68,20.33,20.33,0,0,0,9.14,5.57,40.76,40.76,0,0,0,12.37,1.77A52.24,52.24,0,0,0,40.44,114.91ZM56,52.8a33.82,33.82,0,0,0,10.45-4.68A33.12,33.12,0,0,0,75,39.81a38.49,38.49,0,0,0,5.74-12.34,30.89,30.89,0,0,0,1.3-12.42,15.2,15.2,0,0,0-3.74-8.39,17.77,17.77,0,0,0-7.88-4.75,33.3,33.3,0,0,0-11-1.37,53.79,53.79,0,0,0-12,1.61A33.73,33.73,0,0,0,36.9,6.83a32.71,32.71,0,0,0-8.43,8.3,39.6,39.6,0,0,0-5.65,12.34q-2,7.26-1.2,12.34a15.31,15.31,0,0,0,3.91,8.31,17.84,17.84,0,0,0,8,4.68,38.08,38.08,0,0,0,10.85,1.45A47.07,47.07,0,0,0,56,52.8Z"/></svg>
