<svg id="Calque_1" data-name="Calque 1" xmlns="http://www.w3.org/2000/svg" viewBox="0 0 82.8 117.2" preserveAspectRatio="none"><defs><style>.cls-1{fill:none;stroke:#1d1d1b;stroke-width:1px;}</style></defs><title>Plan de travail 1 copie 35</title><path class="cls-1" d="M80.86,35.45A50,50,0,0,1,74.4,49.79a48.73,48.73,0,0,1-9.67,11.05,42.94,42.94,0,0,1-12.15,7A37.54,37.54,0,0,1,39.2,70.37a38.86,38.86,0,0,1-12.34-1.84,19.22,19.22,0,0,1-8.94-5.93,20.16,20.16,0,0,1-4.21-10.73q-.8-6.65,1.9-16.42a56.12,56.12,0,0,1,7.16-16.34"/><path class="cls-1" d="M.89,95.36A28.3,28.3,0,0,0,.64,102a13.61,13.61,0,0,0,2.45,7,17,17,0,0,0,7,5.45c3.16,1.49,7.43,2.24,13.17,2.24a37.1,37.1,0,0,0,18.64-4.57,50.05,50.05,0,0,0,14.08-11.85A74.26,74.26,0,0,0,66.13,83.91a169.5,169.5,0,0,0,7.12-18.1c2-6,3.36-11.72,4.54-17.06S80,39,80.86,35.45a43.29,43.29,0,0,0,1.22-14.26,23.75,23.75,0,0,0-3.69-11,20.37,20.37,0,0,0-8-7.13A26.37,26.37,0,0,0,58.51.53,49.5,49.5,0,0,0,45.15,2.37,38.73,38.73,0,0,0,32.94,8.3,41.66,41.66,0,0,0,22.77,19.11"/></svg>
