<svg id="Calque_1" data-name="Calque 1" xmlns="http://www.w3.org/2000/svg" viewBox="0 0 82.8 117.2"><defs><style>.cls-1{fill:none;stroke:#000;stroke-width:1px;}</style></defs><title>Plan de travail 1 copie 3</title><path class="cls-1" d="M30.62,116.68a28.61,28.61,0,0,0,12.49-2.76,37.62,37.62,0,0,0,10.6-7,62.32,62.32,0,0,0,8.75-10.81,103.77,103.77,0,0,0,7-12.76A118.7,118.7,0,0,0,74.76,69.9c1.45-4.55,2.14-8.89,3.13-13s1.74-8.23,2.58-12.68a104.57,104.57,0,0,0,1.65-12.92,64.53,64.53,0,0,0-.31-11.95,24.35,24.35,0,0,0-3.12-9.46,16.42,16.42,0,0,0-6.28-6.83Q68,.53,61.05.53H26.93L.64,116.68Z"/></svg>