<svg id="Calque_1" data-name="Calque 1" xmlns="http://www.w3.org/2000/svg" viewBox="0 0 82.8 117.2" preserveAspectRatio="none"><defs><style>.cls-1{fill:none;stroke:#000;stroke-width:1px;}</style></defs><title>Plan de travail 1 copie 6</title><path class="cls-1" d="M82.2,28.38q.4-15.46-6.14-21.92C71.69,2.15,66,0,58,0A43,43,0,0,0,41.91,3,40.24,40.24,0,0,0,27.7,13,75.34,75.34,0,0,0,15.42,31.17,160.3,160.3,0,0,0,5.07,58.84Q.43,75.1.05,86.27t2.51,18a17.85,17.85,0,0,0,8.66,9.37,28.17,28.17,0,0,0,13.3,3,33.78,33.78,0,0,0,14.61-3.35,41,41,0,0,0,13.34-9.76A78.65,78.65,0,0,0,64.06,86c3.56-7.12,7.3-17.57,10.09-27.35H39.65"/></svg>
