<svg id="Calque_1" data-name="Calque 1" xmlns="http://www.w3.org/2000/svg" viewBox="0 0 82.8 117.2"><defs><style>.cls-1{fill:none;stroke:#1d1d1b;stroke-width:1px;}</style></defs><title>Plan de travail 1 copie 39</title><path class="cls-1" d="M.5,33.32C3.8,23.42,9.37,15.47,18.22,9.5s20.05-9,33.62-9Q62,.53,68.52,3.18A23.33,23.33,0,0,1,78.32,10a17.92,17.92,0,0,1,3.8,9.56A26.45,26.45,0,0,1,80.8,30.42a27.56,27.56,0,0,1-6.67,10.42,83,83,0,0,1-10.88,9.3,141.7,141.7,0,0,1-12.45,8q-6.42,3.67-11.23,6.75a68.08,68.08,0,0,0-7.78,5.38,28.82,28.82,0,0,0-5,5.2,29.91,29.91,0,0,0-3.44,6.15q-1.44,3.42-3,8"/><line class="cls-1" x1="16.89" y1="103.65" x2="13.64" y2="117.04"/></svg>