<svg id="Calque_1" data-name="Calque 1" xmlns="http://www.w3.org/2000/svg" viewBox="0 0 82.8 117.2" preserveAspectRatio="none"><defs><style>.cls-1{fill:none;stroke:#000;stroke-width:1px;}</style></defs><title>Plan de travail 1 copie 9</title><path class="cls-1" d="M4.4,78.65l-3.29,13a20,20,0,0,0-.11,9.1,17.73,17.73,0,0,0,3.58,7.93,21.15,21.15,0,0,0,8.42,5.8,31.54,31.54,0,0,0,12.48,2.2,38.57,38.57,0,0,0,13.32-2.3,40,40,0,0,0,10.82-5.9,35.42,35.42,0,0,0,7.78-7.93,27.49,27.49,0,0,0,4.24-8.9L82.26.18"/></svg>
