<svg id="Calque_1" data-name="Calque 1" xmlns="http://www.w3.org/2000/svg" viewBox="0 0 82.8 117.2" preserveAspectRatio="none"><defs><style>.cls-1{fill:none;stroke:#000;stroke-width:1px;}</style></defs><title>Plan de travail 1 copie 14</title><path class="cls-1" d="M38.9,113.62a45.77,45.77,0,0,0,14.38-9.9,73.93,73.93,0,0,0,13.1-17.47,140.11,140.11,0,0,0,11-27.49,113.58,113.58,0,0,0,4.79-27.42q.51-11.23-2.33-18.22C78,8.46,75.69,5.64,72,3.59A26.83,26.83,0,0,0,58.89.53,38.71,38.71,0,0,0,44,3.59a42.93,42.93,0,0,0-14.42,9.53A79.85,79.85,0,0,0,16.41,31.34C12.3,38.83,9.15,48,5.94,58.76S.92,78.81.59,86.25,1.06,99.16,3,103.72s4.23,7.85,8,9.9A26.83,26.83,0,0,0,24,116.68,38.71,38.71,0,0,0,38.9,113.62ZM58.89.53m18.5,58.23M38.9,113.62m-27.95,0"/></svg>
