<svg id="Calque_1" data-name="Calque 1" xmlns="http://www.w3.org/2000/svg" viewBox="0 0 82.8 117.2" preserveAspectRatio="none"><defs><style>.cls-1{fill:none;stroke:#000;stroke-width:1px;}</style></defs><title>Plan de travail 1 copie 16</title><line class="cls-1" x1="60" y1="117" x2="46.46" y2="74.55"/><path class="cls-1" d="M38.92,113.62a45.77,45.77,0,0,0,14.38-9.9A73.93,73.93,0,0,0,66.4,86.25a140.11,140.11,0,0,0,11-27.49A113.58,113.58,0,0,0,82.2,31.34q.51-11.23-2.33-18.22C78,8.46,75.71,5.64,72,3.59A26.83,26.83,0,0,0,58.91.53,38.71,38.71,0,0,0,44,3.59a42.93,42.93,0,0,0-14.42,9.53A79.85,79.85,0,0,0,16.43,31.34C12.32,38.83,9.17,48,6,58.76S.94,78.81.61,86.25,1.08,99.16,3,103.72s4.23,7.85,8,9.9A26.83,26.83,0,0,0,24,116.68,38.71,38.71,0,0,0,38.92,113.62ZM58.91.53m18.5,58.23M38.92,113.62m-27.95,0"/></svg>
