<svg id="Calque_1" data-name="Calque 1" xmlns="http://www.w3.org/2000/svg" viewBox="0 0 82.8 117.2"><defs><style>.cls-1{fill:none;stroke:#000;stroke-width:1px;}</style></defs><title>Plan de travail 1 copie 17</title><path class="cls-1" d="M49.19,58.76c6.54,0,14,.7,19.39,4.74s6,8.94,4.84,15.34l-5.23,29.58c-.82,4.26,0,7.29.85,8.48"/><path class="cls-1" d="M.51,117.08,27,.53H65.71a16.44,16.44,0,0,1,9.51,2.52,15,15,0,0,1,5,6.5,20.66,20.66,0,0,1,2,8.73,45.67,45.67,0,0,1-1,10.49,45.48,45.48,0,0,1-3.75,10.4,36.72,36.72,0,0,1-6,9C64.1,56.1,55.18,58.76,51,58.76H13.51"/></svg>