<svg id="Calque_1" data-name="Calque 1" xmlns="http://www.w3.org/2000/svg" viewBox="0 0 82.8 117.2"><defs><style>.cls-1{fill:none;stroke:#000;stroke-width:1px;}</style></defs><title>Plan de travail 1 copie 18</title><path class="cls-1" d="M80.76,29.28A29.18,29.18,0,0,0,82,16.8a15.38,15.38,0,0,0-4.24-8.62,18.93,18.93,0,0,0-8.34-5.74A37.35,37.35,0,0,0,56.82.53a37.93,37.93,0,0,0-13.3,2.21A37.42,37.42,0,0,0,32.44,8.68a33.13,33.13,0,0,0-8.15,8.22,35.45,35.45,0,0,0-4.81,10.47,50,50,0,0,0-1.94,10.46,18.55,18.55,0,0,0,1,6.84,8.81,8.81,0,0,0,3.35,4.43,20.12,20.12,0,0,0,5.47,2.61l30.3,8.35c5.68,1.51,9.27,4.73,10.74,9.76s.85,12.08-1.27,19A34.64,34.64,0,0,1,61.86,99.1a40.54,40.54,0,0,1-8.9,8.73,46.87,46.87,0,0,1-11.79,6.44,39.45,39.45,0,0,1-13.73,2.41,44.71,44.71,0,0,1-13.11-1.91,18.83,18.83,0,0,1-8.89-6.24A19.76,19.76,0,0,1,.83,98C.15,93.57.67,88.24,2.43,81.9"/></svg>