<svg id="Calque_1" data-name="Calque 1" xmlns="http://www.w3.org/2000/svg" viewBox="0 0 82.8 117.2" preserveAspectRatio="none"><defs><style>.cls-1{fill:none;stroke:#000;stroke-width:1px;}</style></defs><title>Plan de travail 1 copie 20</title><path class="cls-1" d="M82.29.16l-18.05,80A66.39,66.39,0,0,1,58.87,94.2a47,47,0,0,1-8.47,11.35,38,38,0,0,1-11.54,8.12,34.68,34.68,0,0,1-14.63,3"/><path class="cls-1" d="M2.35,80.14l18-80-18,80A52.43,52.43,0,0,0,.54,94.61a24.18,24.18,0,0,0,2.76,11.1,19.08,19.08,0,0,0,7.75,7.88q5.16,2.93,13.18,3.09"/></svg>
