<svg id="Calque_1" data-name="Calque 1" xmlns="http://www.w3.org/2000/svg" viewBox="0 0 82.8 117.2" preserveAspectRatio="none"><defs><style>.cls-1{fill:none;stroke:#1d1d1b;stroke-width:1px;}</style></defs><title>Plan de travail 1 copie 47</title><polyline class="cls-1" points="82.59 0.53 53.74 0.53 26.96 116.68 58.93 116.68"/><line class="cls-1" x1="66.74" y1="58.61" x2="40.35" y2="58.61"/><path class="cls-1" d="M17.43,113.64q3.8-3,7.68-9.8A109.11,109.11,0,0,0,32.86,86,259.28,259.28,0,0,0,40.4,58.76a241.52,241.52,0,0,0,4.83-27.17,87.73,87.73,0,0,0,.41-18.06q-.78-6.93-3.19-10a7.35,7.35,0,0,0-6-3,11.88,11.88,0,0,0-7.35,3q-3.79,3-7.71,10a111.63,111.63,0,0,0-7.8,18.06A256.3,256.3,0,0,0,6.09,58.76,240,240,0,0,0,1.25,86a83,83,0,0,0-.36,17.83q.81,6.76,3.22,9.8a7.35,7.35,0,0,0,6,3A11.88,11.88,0,0,0,17.43,113.64Z"/></svg>
